<svg width="747" height="200" viewBox="0 0 747 200" fill="none" xmlns="http://www.w3.org/2000/svg">
<path d="M0 100C0 44.7715 44.7715 0 100 0V0C155.228 0 200 44.7715 200 100V100C200 155.228 155.228 200 100 200V200C44.7715 200 0 155.228 0 100V100Z" fill="#379683"/>
<path d="M0 100C0 44.7715 44.7715 0 100 0V0C155.228 0 200 44.7715 200 100V100C200 155.228 155.228 200 100 200V200C44.7715 200 0 155.228 0 100V100Z" fill="#3AA38E"/>
<path d="M0 100C0 44.7715 44.7715 0 100 0V0C155.228 0 200 44.7715 200 100V100C200 155.228 155.228 200 100 200V200C44.7715 200 0 155.228 0 100V100Z" fill="url(#paint0_linear)"/>
<path d="M58.1917 85.5592L82.4334 61.3174C88.3394 55.4115 98.4376 59.5943 98.4376 67.9465L98.4376 92.1883C98.4376 97.3659 94.2402 101.563 89.0626 101.563L64.8208 101.563C56.4686 101.563 52.2857 91.4651 58.1917 85.5592Z" fill="white"/>
<path fill-rule="evenodd" clip-rule="evenodd" d="M101.561 46.0723C99.0745 46.0723 96.6899 47.06 94.9318 48.8181L42.5979 101.152C40.8233 102.927 39.7973 105.345 39.9844 107.848C42.2045 137.538 66.9972 160.937 97.2551 160.937C119.154 160.937 138.19 148.681 147.878 130.654C151.762 123.427 154.143 115.273 154.605 106.61L154.609 106.527L154.611 106.504C154.612 106.484 154.635 106.475 154.649 106.489V106.489C154.663 106.503 154.687 106.493 154.687 106.473L154.687 106.457L154.687 106.379L154.687 103.688L154.688 103.505L154.687 103.321L154.687 75.5915L154.687 67.9473L154.687 55.4473C154.687 50.2696 150.49 46.0723 145.312 46.0723H132.812H125.168H101.561ZM132.766 105.349L132.812 104.435V103.688C132.812 103.688 132.812 103.688 132.812 103.688V103.688C132.812 103.688 132.812 103.688 132.812 103.688L132.812 103.62L132.812 103.505L132.812 103.39C132.812 103.39 132.812 103.39 132.812 103.39V103.39C132.812 103.39 132.812 103.39 132.812 103.39V103.321L132.812 77.3223C132.812 72.1446 128.615 67.9473 123.437 67.9473L97.2551 67.9473H96.3301L95.4113 67.9937C76.64 68.943 61.6976 84.4857 61.6976 103.505C61.6976 123.143 77.6172 139.062 97.2551 139.062C116.274 139.062 131.817 124.12 132.766 105.349Z" fill="white"/>
<path d="M250.8 95.28C265.8 93.72 284.52 85.8 291.24 73.68C297.96 85.92 316.8 93.48 332.04 95.16L338.64 81.96C320.4 80.28 303 71.64 301.08 58.2H333.96V45H248.64V58.2H281.28C279.48 71.76 262.56 80.52 244.2 82.2C246.36 86.64 248.64 90.84 250.8 95.28ZM299.4 154.2V115.92H342.72V102.36H240V115.92H282.6V154.2H299.4Z" fill="#4AA570"/>
<path d="M361.191 95.28C376.191 93.72 394.911 85.8 401.631 73.68C408.351 85.92 427.191 93.48 442.431 95.16L449.031 81.96C430.791 80.28 413.391 71.64 411.471 58.2H444.351V45H359.031V58.2H391.671C389.871 71.76 372.951 80.52 354.591 82.2C356.751 86.64 359.031 90.84 361.191 95.28ZM409.791 154.2V115.92H453.111V102.36H350.391V115.92H392.991V154.2H409.791Z" fill="#4AA570"/>
<path d="M478.875 133.793H518.002V124.613H490.551V68.8195H478.875V101.306V133.793Z" fill="#4AA570"/>
<path d="M528.835 133.793H570.011V124.613H540.51V104.916H562.97V95.825H540.51V77.9996H569.477V68.8195H528.835V133.793Z" fill="#4AA570"/>
<path d="M611.217 134.863C619.952 134.863 627.527 132.902 632.429 130.941V100.727H608.989V109.461H621.11V124.256C618.704 125.059 614.871 125.682 611.128 125.682C595.887 125.682 592.322 116.146 592.322 102.599V99.6574C592.322 87.447 596.868 77.1974 612.198 77.1974C620.754 77.1974 625.834 79.1582 629.666 80.8516V71.5825C625.923 69.5325 620.219 67.75 611.841 67.75C594.996 67.75 580.023 75.8605 580.023 100.638V102.688C580.023 125.504 592.144 134.863 611.217 134.863Z" fill="#4AA570"/>
<path d="M667.917 82.6342H668.184L677.275 108.57H658.826L667.917 82.6342ZM639.397 133.793H650.181L656.063 117.305H680.217L686.099 133.793H698.131L675.047 68.8195H663.104L639.397 133.793Z" fill="#4AA570"/>
<path d="M707.436 133.793H746.563V124.613H719.112V68.8195H707.436V133.793Z" fill="#4AA570"/>
<defs>
<linearGradient id="paint0_linear" x1="200" y1="100" x2="0" y2="100" gradientUnits="userSpaceOnUse">
<stop stop-color="#71CF98"/>
<stop offset="1" stop-color="#4AA570"/>
</linearGradient>
</defs>
</svg>
