<svg width="723" height="182" viewBox="0 0 723 182" fill="none" xmlns="http://www.w3.org/2000/svg">
<path d="M0 91C0 40.7421 40.7421 0 91 0C141.258 0 182 40.7421 182 91C182 141.258 141.258 182 91 182C40.7421 182 0 141.258 0 91Z" fill="#379683"/>
<path d="M0 91C0 40.7421 40.7421 0 91 0C141.258 0 182 40.7421 182 91C182 141.258 141.258 182 91 182C40.7421 182 0 141.258 0 91Z" fill="#3AA38E"/>
<path d="M0 91C0 40.7421 40.7421 0 91 0C141.258 0 182 40.7421 182 91C182 141.258 141.258 182 91 182C40.7421 182 0 141.258 0 91Z" fill="url(#paint0_linear)"/>
<path d="M52.9544 77.8586L75.0144 55.7986C80.3888 50.4242 89.5781 54.2305 89.5781 61.8311L89.5781 83.8911C89.5781 88.6027 85.7586 92.4223 81.0469 92.4223L58.9869 92.4223C51.3864 92.4223 47.58 83.233 52.9544 77.8586Z" fill="white"/>
<path fill-rule="evenodd" clip-rule="evenodd" d="M92.4204 41.9258C90.1578 41.9258 87.9878 42.8246 86.3879 44.4245L38.7641 92.0483C37.1492 93.6633 36.2155 95.8644 36.3858 98.1419C38.4061 125.16 60.9675 146.453 88.5021 146.453C108.43 146.453 125.753 135.3 134.569 118.895C138.103 112.319 140.271 104.899 140.691 97.0148L140.694 96.94L140.696 96.9185C140.696 96.9008 140.718 96.8926 140.73 96.9051C140.743 96.918 140.765 96.9089 140.765 96.8906L140.765 96.876L140.765 96.8051L140.765 94.356L140.766 94.1893L140.765 94.0225L140.765 68.7883L140.765 61.832L140.765 50.457C140.765 45.7454 136.946 41.9258 132.234 41.9258H120.859H113.903H92.4204ZM120.817 95.8672L120.859 95.0362V94.3561C120.859 94.3561 120.859 94.356 120.859 94.356C120.859 94.356 120.859 94.356 120.859 94.356L120.859 94.2939L120.859 94.1893L120.859 94.0848C120.859 94.0848 120.859 94.0847 120.859 94.0847C120.859 94.0847 120.859 94.0847 120.859 94.0847V94.0225V70.3633C120.859 65.6516 117.04 61.832 112.328 61.832L88.5021 61.832H87.6604L86.8242 61.8743C69.7424 62.7382 56.1448 76.882 56.1448 94.1893C56.1448 112.06 70.6317 126.547 88.5021 126.547C105.809 126.547 119.953 112.949 120.817 95.8672Z" fill="white"/>
<path d="M226.925 90.0925C241.925 88.5325 260.645 80.6125 267.365 68.4925C274.085 80.7325 292.925 88.2925 308.165 89.9725L314.765 76.7725C296.525 75.0925 279.125 66.4525 277.205 53.0125H310.085V39.8125H224.765V53.0125H257.405C255.605 66.5725 238.685 75.3325 220.325 77.0125C222.485 81.4525 224.765 85.6525 226.925 90.0925ZM275.525 149.013V110.733H318.845V97.1725H216.125V110.733H258.725V149.013H275.525Z" fill="#4AA570"/>
<path d="M337.316 90.0925C352.316 88.5325 371.036 80.6125 377.756 68.4925C384.476 80.7325 403.316 88.2925 418.556 89.9725L425.156 76.7725C406.916 75.0925 389.516 66.4525 387.596 53.0125H420.476V39.8125H335.156V53.0125H367.796C365.996 66.5725 349.076 75.3325 330.716 77.0125C332.876 81.4525 335.156 85.6525 337.316 90.0925ZM385.916 149.013V110.733H429.236V97.1725H326.516V110.733H369.116V149.013H385.916Z" fill="#4AA570"/>
<path d="M455 128.605H494.127V119.425H466.676V63.632H455V96.1188V128.605Z" fill="#4AA570"/>
<path d="M504.96 128.605H546.136V119.425H516.635V99.7284H539.095V90.6374H516.635V72.8121H545.602V63.632H504.96V128.605Z" fill="#4AA570"/>
<path d="M587.342 129.675C596.077 129.675 603.652 127.714 608.554 125.753V95.5394H585.114V104.274H597.235V119.069C594.829 119.871 590.996 120.495 587.253 120.495C572.012 120.495 568.447 110.958 568.447 97.4111V94.4699C568.447 82.2595 572.993 72.0099 588.323 72.0099C596.879 72.0099 601.959 73.9707 605.791 75.6641V66.395C602.048 64.345 596.344 62.5625 587.966 62.5625C571.121 62.5625 556.148 70.673 556.148 95.4503V97.5002C556.148 120.317 568.269 129.675 587.342 129.675Z" fill="#4AA570"/>
<path d="M644.042 77.4467H644.309L653.4 103.383H634.951L644.042 77.4467ZM615.522 128.605H626.306L632.188 112.117H656.342L662.224 128.605H674.256L651.172 63.632H639.229L615.522 128.605Z" fill="#4AA570"/>
<path d="M683.561 128.605H722.688V119.425H695.237V63.632H683.561V128.605Z" fill="#4AA570"/>
<defs>
<linearGradient id="paint0_linear" x1="182" y1="91" x2="0" y2="91" gradientUnits="userSpaceOnUse">
<stop stop-color="#71CF98"/>
<stop offset="1" stop-color="#4AA570"/>
</linearGradient>
</defs>
</svg>
