<svg width="135" height="135" viewBox="0 0 135 135" fill="none" xmlns="http://www.w3.org/2000/svg">
<g clip-path="url(#clip0)">
<rect width="135" height="135" rx="67.5" fill="#F3EDFF"/>
<path d="M118.58 118.892L87.313 108.974L74.9186 148.048L106.186 157.966L118.58 118.892Z" fill="#FFB69C"/>
<path d="M118.577 118.889L87.3135 108.972L86.8024 110.583L118.066 120.5L118.577 118.889Z" fill="#BC6C50"/>
<path d="M112.643 102.31C111.149 102.215 103.596 108.127 103.596 108.127L103.266 108.586C103.266 108.586 113.846 110.122 114.326 109.793C115.623 108.903 113.87 102.388 112.643 102.31ZM103.627 108.303C106.092 106.463 111.231 104.173 112.338 103.69C112.959 104.717 113.598 107.441 113.487 108.571C112.244 108.501 106.72 108.724 103.627 108.303Z" fill="#4AA570"/>
<path d="M98.5255 100.027C96.1698 97.5402 95.3962 97.3567 94.4665 97.5946C93.5369 97.8325 89.4726 101.235 90.4899 102.882C91.5073 104.529 101.947 108.199 101.947 108.199L102.347 107.63C102.347 107.63 100.882 102.512 98.5255 100.027ZM92.4605 102.898C91.9895 102.138 94.1696 100.037 95.01 99.6864C95.2147 99.6342 101.283 105.895 101.903 107.66C98.0021 106.212 92.9144 103.546 92.4605 102.898Z" fill="#4AA570"/>
<path d="M101.54 110.177L102.141 110.331C102.736 110.484 103.337 110.141 103.482 109.566L103.913 107.858C104.058 107.283 103.693 106.692 103.098 106.539L102.496 106.385C101.901 106.232 101.3 106.576 101.156 107.151L100.725 108.858C100.579 109.434 100.944 110.025 101.54 110.177Z" fill="#4AA570"/>
<path d="M121.208 115.186L86.7026 104.24L85.2585 108.793L119.764 119.738L121.208 115.186Z" fill="#FF8C64"/>
<line x1="102.147" y1="114.147" x2="97.2324" y2="130.528" stroke="#4AA570"/>
<path d="M39.2683 99.3771C38.2443 99.949 35.7586 107.053 35.7586 107.053L35.7344 107.495C35.7344 107.495 43.3532 104.016 43.5315 103.594C44.011 102.457 40.1098 98.9084 39.2683 99.3771ZM35.8534 107.155C36.7027 104.896 39.1231 101.204 39.6492 100.416C40.4916 100.83 42.0599 102.353 42.4627 103.144C41.6153 103.626 38.0698 106.118 35.8534 107.155Z" fill="#4AA570"/>
<path d="M29.0043 103.867C26.4042 103.229 25.8175 103.436 25.3057 103.988C24.7936 104.539 23.5495 108.507 24.9133 109.161C26.2783 109.815 34.7035 107.799 34.7035 107.799L34.7273 107.255C34.7258 107.254 31.6041 104.504 29.0043 103.867ZM26.2177 108.335C25.5871 108.034 26.1379 105.723 26.5447 105.135C26.6578 105.013 33.2938 106.562 34.4477 107.462C31.2658 108.165 26.7899 108.568 26.2177 108.335Z" fill="#4AA570"/>
<path d="M35.2675 109.276L35.7287 109.122C36.1853 108.97 36.4368 108.489 36.2902 108.049L35.8544 106.74C35.7074 106.299 35.2181 106.066 34.7615 106.218L34.3003 106.371C33.8437 106.524 33.5923 107.005 33.7388 107.445L34.1747 108.753C34.3216 109.195 34.8109 109.428 35.2675 109.276Z" fill="#4AA570"/>
<path d="M52.2555 102.019L14.7596 114.386C13.762 114.716 13.2826 115.826 13.7496 116.729L15.5583 120.226L17.4345 119.597L24.7497 137.788C25.1412 138.762 26.2522 139.253 27.2827 138.91L57.1819 128.953L51.6292 108.133L53.3962 107.541L52.2555 102.019Z" fill="#B75742"/>
<path d="M57.8201 128.74L34.8706 136.383L25.2036 111.457L52.4714 102.375L59.1794 126.331C59.4585 127.332 58.861 128.394 57.8201 128.74Z" fill="#FF8C64"/>
<path d="M55.2423 106.938L25.6668 116.872L23.1611 111.6L52.1943 102.049C53.1481 101.735 54.1558 102.277 54.3757 103.22L55.2423 106.938Z" fill="#FF8C64"/>
<path d="M25.6658 116.872L53.8738 107.394L27.0163 117.94L25.6658 116.872Z" fill="#B75742"/>
<path d="M35.7434 107.458L34.958 107.719L36.7663 113.149L37.5517 112.887L35.7434 107.458Z" fill="#4AA570"/>
<path d="M40.0173 112.037L39.0356 112.364L45.833 132.774L46.8147 132.447L40.0173 112.037Z" fill="#4AA570"/>
<path d="M105.253 73.0553L105.199 66.1249L99.4218 62.2417C98.7639 61.7971 98.9014 60.8011 99.655 60.5462L106.27 58.3526L108.202 51.689C108.423 50.9301 109.422 50.7523 109.894 51.3866L114.039 56.9594L121.007 56.7282C121.802 56.7045 122.281 57.5938 121.82 58.2341L117.765 63.8721L120.139 70.3875C120.409 71.1285 119.709 71.8578 118.949 71.6206L112.299 69.5338L106.796 73.7964C106.174 74.2825 105.259 73.8438 105.253 73.0553Z" fill="#F47458" fill-opacity="0.2"/>
<path d="M36.47 71L33.15 46.07L14.59 46.14L10.46 21.66L-7.5 18.99L-12.95 1L-20 3.57L-12.72 27.62L4.30005 30.16L8.58997 55.63L26.85 55.56L29.85 78.15L36.47 71Z" fill="#F7CC7F" fill-opacity="0.4"/>
<path d="M85.2919 39.4071C85.2919 39.4071 83.9418 42.4855 84.1086 46.7983C84.2755 51.111 85.4038 56.6201 85.7408 57.0705C86.0779 57.5209 88.6766 56.7654 89.6989 55.552C89.6989 55.552 90.6607 57.7819 91.5093 58.3066C92.3579 58.8313 95.9525 55.056 96.0193 53.2912C96.0861 51.5265 91.4925 40.4098 91.4925 40.4098L89.5018 36.304L85.2919 39.4071Z" fill="#F0B3A7"/>
<path d="M67.1987 79.8418L89.7195 53.2787C90.3703 52.5072 90.311 51.3706 89.5888 50.6718C83.8988 45.1834 60.7364 22.9109 49.2352 12.9275C48.4806 12.2702 47.3576 12.3145 46.6493 13.0115C43.2564 16.3808 33.3433 26.4257 21.7009 40.0712C21.0281 40.8608 21.1035 42.0395 21.8827 42.7358C28.3049 48.4456 55.1723 72.2918 64.5136 80.0701C65.3316 80.7418 66.5207 80.643 67.1987 79.8418Z" fill="url(#paint0_linear)"/>
<path d="M67.9144 79.5673L90.4436 53.0008C91.0944 52.2294 91.0351 51.0928 90.3129 50.394C84.623 44.9056 61.4605 22.6331 49.9593 12.6497C49.2047 11.9923 48.0818 12.0367 47.3734 12.7336C43.9805 16.103 34.0675 26.1479 22.425 39.7934C21.7522 40.583 21.8277 41.7617 22.6068 42.4579C29.0291 48.1678 55.8965 72.014 65.2377 79.7923C66.0473 80.4672 67.2448 80.3652 67.9144 79.5673Z" fill="url(#paint1_linear)"/>
<path opacity="0.5" d="M46.658 13.0661L22.696 39.1967C21.7892 40.1823 21.8696 41.7263 22.872 42.6267L63.1502 78.3613L69.2251 30.6395L50.0638 12.9284C49.0867 12.0183 47.5563 12.0837 46.658 13.0661Z" fill="url(#paint2_linear)"/>
<path d="M124.248 95.2139C132.895 93.6546 144.361 89.1685 144.361 89.1685L115.227 75.5058C112.312 71.861 108.6 55.2854 107.503 51.5709L107.5 51.5625C107.399 51.2243 107.329 50.9905 107.27 50.8875C107.164 50.6866 107.011 50.465 106.815 50.231C105.77 48.9413 103.627 47.1838 103.068 46.6347C102.408 45.9703 101.635 43.9575 100.337 42.3107C99.0385 40.664 97.0961 38.5977 97.0961 38.5977C97.0961 38.5977 95.9602 34.5794 94.8051 32.6264C93.6384 30.6683 92.2092 29.7383 92.2092 29.7383C92.1924 29.7448 92.1872 29.7565 92.1704 29.7629C91.79 30.0055 88.6366 31.9593 84.8674 33.8692C82.6031 35.0181 80.3227 35.9993 78.7725 36.6424C77.5728 37.1414 76.8116 37.4237 76.8116 37.4237L78.0113 38.5866L82.0254 42.4243C85.292 40.8883 87.8413 39.1992 88.5444 38.7193L88.7356 38.588C88.7356 38.588 91.1211 47.8272 91.7299 52.6371C92.3355 57.4386 89.894 67.2158 88.9254 67.7131C87.9569 68.2103 81.8992 65.7421 79.9526 63.262C78.4685 61.358 77.3813 58.7509 75.8838 55.9052C75.435 55.0629 74.9513 54.205 74.4041 53.3329C74.2534 53.0912 74.0677 52.8339 73.8601 52.5947L73.8536 52.5779C72.4995 50.9622 70.1421 49.4512 67.811 48.3359L67.7993 48.3307C65.0688 47.0305 62.3922 46.299 61.449 46.6609C59.571 47.3814 57.921 52.1207 58.7244 53.3584C59.5329 54.5844 68.5384 60.279 73.5512 64.7325C74.1168 65.2498 74.7063 65.8545 75.2827 66.5512L75.2859 66.5597C75.986 67.4022 76.6879 68.3503 77.3839 69.3586C79.4189 72.3459 81.3161 75.8306 82.7582 78.456C83.8931 80.5327 84.7525 82.0676 85.1732 82.4087C86.2048 83.2592 88.2412 83.6567 90.6844 83.8304C90.6928 83.8271 90.6928 83.8271 90.7045 83.8323C96.8628 84.2715 105.63 83.2265 107.597 84.0468C108.208 84.3051 109.564 85.1954 111.295 86.4345C112.652 87.402 114.217 88.56 115.856 89.7861C121.467 94.0102 124.248 95.2139 124.248 95.2139Z" fill="#F0B3A7"/>
<path d="M122.225 77.9801L145.486 89.6833C140.034 95.6687 131.519 96.5396 122.31 96.208C121.217 93.6612 118.808 86.3732 122.225 77.9801Z" fill="url(#paint3_linear)"/>
<path opacity="0.42" d="M24.6189 37.2512L70.4122 76.0293L75.9466 69.5291L30.1926 30.9292L24.6189 37.2512Z" fill="#5D656D"/>
<path opacity="0.2" d="M40.4835 30.9455L74.787 59.9966L78.9265 55.1234L44.6578 26.2136L40.4835 30.9455Z" fill="#FFE5BA"/>
<path opacity="0.2" d="M107.233 50.8919C107.189 50.8025 107.125 50.7112 107.058 50.6114C107.037 50.5809 107.012 50.542 106.982 50.5148C106.925 50.4403 106.864 50.3573 106.803 50.2744C106.8 50.266 106.785 50.2524 106.782 50.2439C105.739 48.9627 103.605 47.2019 103.047 46.6528C102.386 45.9884 101.614 43.9756 100.315 42.3288C99.0135 40.6737 97.0743 38.6158 97.0743 38.6158C97.0743 38.6158 99.5388 47.8344 99.99 48.1541C99.8713 49.9097 98.8759 55.7506 98.6101 56.896C97.4327 61.8598 95.732 66.0388 94.6786 67.3222C93.6252 68.6056 88.9121 67.7279 88.9121 67.7279C87.9467 68.2336 81.8774 65.7602 79.9392 63.2769C78.4551 61.3728 77.368 58.7658 75.8704 55.9201L75.8587 55.9149C75.8587 55.9149 78.4109 61.6603 78.389 64.7509C78.3671 67.8414 77.3757 69.3618 77.3757 69.3618C79.4107 72.3492 81.3079 75.8338 82.75 78.4592C83.8849 80.5359 84.7443 82.0709 85.165 82.4119C88.8131 85.3986 104.839 82.902 107.597 84.0468C108.691 84.5063 112.125 86.9857 115.857 89.7861C114.555 86.2178 112.742 79.6284 115.202 75.5154C112.284 71.8622 108.563 55.2899 107.478 51.5806L107.472 51.5638C107.362 51.2288 107.292 50.995 107.233 50.8919Z" fill="#FF9E8B"/>
<path d="M88.9136 67.7079C88.9136 67.7079 89.665 67.5259 90.7152 66.2341C91.7685 64.9507 91.5422 59.627 91.5422 59.627C91.5422 59.627 89.8633 66.532 88.9136 67.7079Z" fill="#FF9E8B"/>
<path d="M64.1587 57.3706C64.1587 57.3706 66.4335 58.5654 67.9272 57.2967C69.4177 56.0195 68.5688 53.379 66.9791 51.6025C65.6087 50.0703 62.3628 48.6104 62.3628 48.6104L64.1587 57.3706Z" fill="#EFA698"/>
<path d="M67.8394 54.4993C67.9599 55.342 67.8588 56.2117 67.3214 56.901C66.876 57.4776 66.2374 57.626 65.628 57.599C64.6035 57.5476 63.6332 56.9827 63.6332 56.9827C62.0286 56.0234 60.487 54.7502 59.5772 53.9398C59.0627 53.4802 58.7469 53.1859 58.7469 53.1859C58.4816 49.6742 61.4334 48.0006 61.4334 48.0006C61.4334 48.0006 61.9648 48.3281 62.6917 48.8125C64.0742 49.7217 66.1564 51.145 66.7089 51.8799C67.1824 52.5098 67.6829 53.4869 67.8394 54.4993Z" fill="#FEC0B9"/>
<path d="M62.6953 48.8217C60.0168 50.4774 59.584 53.9574 59.584 53.9574C59.0695 53.4978 58.7537 53.2035 58.7537 53.2035C58.4884 49.6918 61.4402 48.0182 61.4402 48.0182C61.4402 48.0182 61.98 48.3425 62.6953 48.8217Z" fill="white"/>
<path d="M67.8395 54.4991C67.9599 55.3418 67.8589 56.2115 67.3215 56.9008C66.8761 57.4774 66.2374 57.6259 65.6281 57.5988C65.4555 57.1239 65.3687 56.394 65.8771 55.5032C66.3525 54.7025 67.1628 54.4979 67.8395 54.4991Z" fill="white"/>
<path d="M84.5467 41.8967C84.5467 41.8967 88.0009 40.3492 88.8694 41.1271C89.7462 41.9017 91.1078 52.1233 89.6991 55.5526C89.6991 55.5526 90.6314 57.5041 91.5095 58.3073C91.5095 58.3073 92.218 55.1176 91.5519 51.5181C90.889 47.927 88.716 38.5869 88.716 38.5869C88.716 38.5869 85.8085 40.6783 84.728 41.0348L84.5467 41.8967Z" fill="#EFA193"/>
<path d="M97.0679 38.5993C97.0679 38.5993 100.441 46.6096 100.48 47.493C100.52 48.3764 99.9835 48.1376 99.9835 48.1376C99.9835 48.1376 97.4328 39.8023 97.0679 38.5993Z" fill="#EFA193"/>
<path opacity="0.2" d="M102.514 45.9204C102.514 45.9204 103.814 49.0833 104.484 49.2419C105.153 49.4004 105.522 48.9014 105.522 48.9014C105.522 48.9014 103.118 46.9928 102.514 45.9204Z" fill="#FF9E8B"/>
<path opacity="0.2" d="M111.293 86.4271C109.553 85.1912 108.197 84.3009 107.586 84.0426C105.619 83.2223 96.8517 84.2673 90.6934 83.8281C91.4575 83.8055 97.2751 83.5831 101.921 82.2451C106.903 80.8265 107.429 80.4604 108.068 80.6403C108.717 80.797 111.293 86.4271 111.293 86.4271Z" fill="#EFA193"/>
<path d="M67.7794 48.3291C64.0658 47.0099 61.3877 48.163 61.3877 48.163C58.8567 50.052 58.7013 53.3483 58.7013 53.3483C57.8979 52.1107 59.5479 47.3714 61.4259 46.6508C62.3723 46.2974 65.0521 47.0373 67.7794 48.3291Z" fill="#FF9E8B"/>
<path opacity="0.2" d="M102.268 52.9329C102.268 52.9329 107.191 67.7784 112.648 74.8248C112.651 74.8332 104.976 58.2802 102.268 52.9329Z" fill="#FF9E8B"/>
<path opacity="0.2" d="M106.444 51.33C106.444 51.33 107.705 61.9672 110.173 68.4016C110.182 68.3984 106.688 53.7776 106.444 51.33Z" fill="#FF9E8B"/>
<path opacity="0.2" d="M130.005 82.4453C130.005 82.4453 126.324 88.5145 126.196 96.264C125.969 96.2742 125.737 96.2759 125.506 96.2776C125.212 92.6901 125.652 87.468 128.669 81.2286L130.005 82.4453Z" fill="#B396C7"/>
<path opacity="0.2" d="M109.166 84.9624L121.613 94.1869C121.613 94.1869 121.15 93.1082 120.953 91.8892C120.953 91.8892 116.102 90.0212 109.166 84.9624Z" fill="#EFA193"/>
<path d="M119.43 92.5027C119.43 92.5027 119.016 86.4878 120.969 82.0861C120.969 82.0861 119.895 88.4787 121.386 93.8489L119.43 92.5027Z" fill="#EFA193"/>
<path d="M77.79 59.7158C77.79 59.7158 79.7338 64.1778 80.5445 65.1324C81.3552 66.0871 88.5804 67.8464 88.5804 67.8464C88.5804 67.8464 82.6985 65.8615 81.313 64.567C79.9359 63.2693 77.79 59.7158 77.79 59.7158Z" fill="#EFA193"/>
<path d="M91.1485 112.046L51.3843 107.29L45.44 156.982L85.2043 161.739L91.1485 112.046Z" fill="#8D7ED2"/>
<path d="M57.6937 108.044L56.2534 107.872L50.3092 157.564L51.7494 157.737L57.6937 108.044Z" fill="#D6CBF7"/>
<path d="M61.9427 108.552L60.5024 108.38L54.5582 158.072L55.9984 158.245L61.9427 108.552Z" fill="#D6CBF7"/>
<path d="M66.1937 109.06L64.7534 108.888L58.8092 158.581L60.2494 158.753L66.1937 109.06Z" fill="#D6CBF7"/>
<path d="M70.4437 109.569L69.0034 109.397L63.0592 159.089L64.4994 159.262L70.4437 109.569Z" fill="#D6CBF7"/>
<path d="M74.6956 110.078L73.2554 109.906L67.3111 159.598L68.7514 159.77L74.6956 110.078Z" fill="#D6CBF7"/>
<path d="M78.9456 110.586L77.5054 110.414L71.5611 160.106L73.0014 160.279L78.9456 110.586Z" fill="#D6CBF7"/>
<path d="M83.1966 111.095L81.7563 110.922L75.8121 160.615L77.2524 160.787L83.1966 111.095Z" fill="#D6CBF7"/>
<path d="M87.4476 111.603L86.0073 111.431L80.0631 161.123L81.5033 161.296L87.4476 111.603Z" fill="#D6CBF7"/>
<path d="M91.1444 112.043L51.3848 107.287L51.1397 109.336L90.8993 114.092L91.1444 112.043Z" fill="#D6CBF7"/>
<path d="M80.2419 93.5146C78.4284 93.7417 70.7191 102.556 70.7191 102.556L70.4284 103.182C70.4284 103.182 83.4687 102.609 83.9687 102.105C85.3211 100.741 81.7313 93.3273 80.2419 93.5146ZM70.7966 102.76C73.3338 99.9905 78.9736 96.0704 80.1915 95.2385C81.1702 96.3285 82.5585 99.4503 82.6835 100.83C81.177 101.03 74.6032 102.558 70.7966 102.76Z" fill="#FF8C64"/>
<path d="M62.7892 93.9986C59.3963 91.5544 58.4266 91.5108 57.3659 92.0084C56.3052 92.506 52.2075 97.5141 53.8038 99.2577C55.4001 101.001 68.7585 103.019 68.7585 103.019L69.1086 102.245C69.1086 102.245 66.1823 96.4413 62.7892 93.9986ZM56.1708 98.827C55.4324 98.0232 57.5674 95.0052 58.4952 94.3931C58.7289 94.2838 67.4357 100.407 68.5831 102.382C63.5736 101.537 56.8631 99.5003 56.1708 98.827Z" fill="#FF8C64"/>
<path d="M68.7216 105.484L69.478 105.532C70.2266 105.58 70.8692 105.03 70.9109 104.308L71.0381 102.161C71.0814 101.439 70.5082 100.813 69.7596 100.766L69.0032 100.718C68.2546 100.67 67.612 101.219 67.5703 101.942L67.4431 104.089C67.3997 104.813 67.9728 105.438 68.7216 105.484Z" fill="#FF8C64"/>
<path d="M93.4545 107.001L49.5718 101.751L48.8792 107.542L92.7619 112.791L93.4545 107.001Z" fill="#8D7ED2"/>
</g>
<defs>
<linearGradient id="paint0_linear" x1="68.3631" y1="79.6492" x2="43.2342" y2="14.1533" gradientUnits="userSpaceOnUse">
<stop stop-color="#8642A0"/>
<stop offset="1" stop-color="#6456C0"/>
</linearGradient>
<linearGradient id="paint1_linear" x1="69.0828" y1="79.3731" x2="43.954" y2="13.8771" gradientUnits="userSpaceOnUse">
<stop stop-color="#8060D7"/>
<stop offset="1" stop-color="#9F5BA0"/>
</linearGradient>
<linearGradient id="paint2_linear" x1="62.0736" y1="78.7771" x2="38.0286" y2="16.1063" gradientUnits="userSpaceOnUse">
<stop/>
<stop offset="1" stop-color="#6A9BFF"/>
</linearGradient>
<linearGradient id="paint3_linear" x1="134.952" y1="95.7086" x2="127.39" y2="75.998" gradientUnits="userSpaceOnUse">
<stop stop-color="#CBC1F7"/>
<stop offset="1" stop-color="#E8DCF7"/>
</linearGradient>
<clipPath id="clip0">
<rect width="135" height="135" rx="67.5" fill="white"/>
</clipPath>
</defs>
</svg>
