<svg width="135" height="135" viewBox="0 0 135 135" fill="none" xmlns="http://www.w3.org/2000/svg">
<g clip-path="url(#clip0)">
<rect width="135" height="135" rx="67.5" fill="#FFE9E1"/>
<path fill-rule="evenodd" clip-rule="evenodd" d="M49.7274 66.2254C49.9066 65.177 50 64.0994 50 63C50 52.5066 41.4934 44 31 44C29.4026 44 27.8512 44.1971 26.3689 44.5684C22.8851 40.5451 17.7398 38 12 38C3.59283 38 -3.539 43.4604 -6.04251 51.0281C-16.0511 51.5693 -24 59.8564 -24 70C-24 80.4934 -15.4934 89 -5 89C-5 99.4934 3.50659 108 14 108C15.4279 108 16.819 107.842 18.157 107.544C20.8238 114.813 27.8062 120 36 120C46.4934 120 55 111.493 55 101C55 100.266 54.9584 99.5426 54.8775 98.8307C59.2198 95.3486 62 89.999 62 84C62 75.8753 56.9004 68.9416 49.7274 66.2254Z" fill="#F28C67" fill-opacity="0.6"/>
<path fill-rule="evenodd" clip-rule="evenodd" d="M88.257 74.4095C89.2049 75.5365 90.0383 76.7216 90.7584 77.9507C100.452 74.5507 111.657 77.2609 118.662 85.5885C123.834 91.7372 125.596 99.6173 124.147 106.93C124.844 107.59 125.511 108.296 126.143 109.048C135.19 119.803 133.805 135.856 123.049 144.903C114.651 151.967 103.022 152.671 94.0216 147.519C92.9076 148.978 91.6175 150.339 90.1538 151.57C79.3984 160.617 63.3456 159.232 54.2988 148.476C43.5434 157.523 27.4908 156.138 18.4441 145.382C13.8233 139.889 11.9241 133.013 12.6048 126.395C5.10961 124.473 0.228444 117.081 1.56498 109.322C2.97136 101.158 10.7297 95.6802 18.8937 97.0866C18.9262 97.0922 18.9586 97.0979 18.991 97.1037C19.902 91.2396 22.8568 85.6665 27.755 81.5465C33.638 76.5981 41.1059 74.7708 48.1453 75.8908C49.3446 74.2324 50.7647 72.6928 52.402 71.3156C63.1574 62.2689 79.2103 63.6541 88.257 74.4095Z" fill="#FFB89E" fill-opacity="0.6"/>
<path fill-rule="evenodd" clip-rule="evenodd" d="M82.0176 113.7C82.6378 114.437 83.183 115.212 83.6542 116.017C89.9968 113.792 97.3279 115.565 101.911 121.014C105.295 125.037 106.448 130.193 105.5 134.978C105.956 135.409 106.393 135.871 106.806 136.363C112.726 143.401 111.819 153.904 104.782 159.823C99.2869 164.445 91.6783 164.906 85.7892 161.535C85.0604 162.49 84.2163 163.38 83.2587 164.186C76.2214 170.105 65.7181 169.199 59.7989 162.161L59.7988 162.161C52.7616 168.08 42.2583 167.174 36.3391 160.137C33.3157 156.543 32.073 152.044 32.5184 147.714C27.6144 146.456 24.4206 141.619 25.2951 136.543C26.2153 131.201 31.2916 127.617 36.6333 128.537C36.6546 128.541 36.6758 128.545 36.6971 128.548C37.2932 124.712 39.2265 121.065 42.4313 118.369C46.2805 115.132 51.1667 113.936 55.7726 114.669C56.5572 113.584 57.4865 112.576 58.5578 111.675C65.595 105.756 76.0983 106.662 82.0176 113.7Z" fill="#F28C67" fill-opacity="0.6"/>
<path d="M43.513 87.7912L25.2987 106.108" stroke="white" stroke-linecap="round"/>
<path d="M51.4173 85.4426L33.203 103.759" stroke="white" stroke-linecap="round"/>
<path d="M45.0817 100.735L33.5757 112.251" stroke="white" stroke-linecap="round"/>
<path d="M52.9426 97.3868L41.4365 108.903" stroke="white" stroke-linecap="round"/>
<path d="M114.129 51.8838L117.711 45.3255L114.341 38.6573C113.955 37.8959 114.613 37.0285 115.447 37.1855L122.792 38.567L128.094 33.3C128.697 32.6995 129.728 33.0527 129.838 33.8965L130.795 41.3065L137.443 44.7211C138.199 45.1096 138.183 46.1968 137.411 46.5618L130.657 49.7605L129.464 57.1351C129.33 57.975 128.287 58.2968 127.705 57.6767L122.576 52.2448L115.191 53.3909C114.345 53.5204 113.719 52.6295 114.129 51.8838Z" fill="#F7CC7F" fill-opacity="0.5"/>
<path d="M63.4031 7.92114C63.4031 7.92114 64.4004 5.10047 67.7353 4.09532C70.7118 3.19925 73.4741 4.95242 74.3 7.71464C75.2584 10.9132 73.5987 15.5377 67.3262 21.0154C59.0824 19.9167 55.1553 16.9753 54.193 13.7806C53.3632 11.0184 54.7034 8.03021 57.6799 7.13025C61.0226 6.1212 63.4031 7.92114 63.4031 7.92114Z" fill="#F48C7F" fill-opacity="0.3"/>
<path d="M39.1858 16.6014C42.2169 16.2001 44.6324 15.7248 46.9855 15.1404C47.7608 14.9495 49.1634 14.8443 49.5374 14.0457C49.7322 13.6288 49.6699 13.1964 49.2725 12.9198C48.5439 12.4133 47.4375 12.9587 46.6544 13.1496C44.2701 13.7379 41.5468 14.2872 38.7612 14.6846C38.2392 14.7586 37.9119 15.3664 38.0209 15.8534C38.1417 16.4144 38.6599 16.6715 39.1858 16.6014Z" fill="#F48C7F" fill-opacity="0.3"/>
<path d="M80.4751 12.9468C81.6205 12.6858 82.7581 12.4014 83.8996 12.1209C84.9905 11.8521 86.3269 11.7274 87.2697 11.1002C87.9632 10.6365 87.7878 9.60412 86.9151 9.51452C85.7853 9.39764 84.562 9.89631 83.4672 10.169C82.3257 10.4534 81.1881 10.73 80.0505 11.0339C78.8389 11.3534 79.244 13.2273 80.4751 12.9468Z" fill="#F48C7F" fill-opacity="0.3"/>
<path d="M53.3472 29.0102C54.1926 26.2519 55.7588 25.0831 56.8652 23.8364C57.4574 23.1702 56.8068 22.2079 55.9691 22.5585C53.6705 23.5169 52.1589 26.1623 51.4849 28.4453C51.1304 29.6491 52.9771 30.214 53.3472 29.0102Z" fill="#F48C7F" fill-opacity="0.3"/>
<path d="M67.9611 31.8501C67.63 30.6774 67.5287 29.4813 67.6963 28.2736C67.7975 27.5334 68.7014 25.3205 67.2755 25.2932C65.9314 25.2659 65.756 27.5139 65.6664 28.4645C65.5495 29.7385 65.682 31.0475 66.0405 32.2786C66.4028 33.4825 68.3079 33.0695 67.9611 31.8501Z" fill="#F48C7F" fill-opacity="0.3"/>
<path d="M75.8976 22.2933C76.6456 22.601 77.3897 22.9088 78.1338 23.2166C78.8779 23.5244 79.6455 24.0464 80.4403 23.6724C80.8883 23.462 80.9584 22.9439 80.7987 22.5309C80.5143 21.7829 79.3923 21.5686 78.7105 21.292C77.9625 20.9881 77.2145 20.6842 76.4703 20.3803C75.9717 20.1778 75.3794 20.5634 75.2314 21.0465C75.0677 21.6076 75.4028 22.0868 75.8976 22.2933Z" fill="#F48C7F" fill-opacity="0.3"/>
<path d="M53.8617 2.80973C50.028 -2.44979 50.067 -2.48875 49.4631 -2.85496C48.8437 -3.22508 48.006 -2.66797 48.1774 -1.93943C48.3489 -1.21868 48.3333 -1.33945 52.389 4.17721C52.7123 4.61745 53.4447 4.5707 53.811 4.23175C54.2473 3.82658 54.185 3.24997 53.8617 2.80973Z" fill="#F48C7F" fill-opacity="0.3"/>
<path d="M64.2564 0.222827C64.4005 -0.840765 64.4317 -1.90825 64.3499 -2.97964C64.2719 -3.9731 64.2875 -5.5081 63.2395 -5.96003C63.0135 -6.05743 62.659 -5.96782 62.4954 -5.78861C61.8175 -5.04059 62.3006 -3.77831 62.3668 -2.85886C62.4408 -1.85761 62.4058 -0.848558 62.3084 0.148804C62.2577 0.674756 62.7408 1.14227 63.2434 1.15785C63.8161 1.18123 64.1862 0.744884 64.2564 0.222827Z" fill="#F48C7F" fill-opacity="0.3"/>
<path d="M79.1853 -2.38353C79.2476 -2.87053 78.7878 -3.20558 78.371 -3.26402C77.51 -3.3848 76.6606 -2.37184 76.0957 -1.81862C75.4373 -1.17579 74.8452 -0.474528 74.2958 0.265701C73.9803 0.690359 74.1907 1.35657 74.6153 1.62149C75.1101 1.92927 75.6322 1.71889 75.9633 1.30202C78.1333 -1.42124 79.0294 -1.18358 79.1853 -2.38353Z" fill="#F48C7F" fill-opacity="0.3"/>
<path d="M45.8501 66.7532C42.1014 66.023 37.8691 68.4006 33.7254 71.8349L35.4253 72.1696C39.569 68.7354 43.8013 66.3577 47.5499 67.0879L45.8501 66.7532Z" fill="#FF8C64"/>
<path d="M63.4001 49.8658C63.1428 49.7803 62.878 49.7233 62.6232 49.675L60.9233 49.3403C61.1782 49.3886 61.4442 49.4642 61.7002 49.5311L68.0046 51.4154L51.1272 70.5691L52.8271 70.9038L69.6946 51.7414L63.4001 49.8658Z" fill="#EB7850"/>
<path d="M61.7107 49.5398C58.4299 48.5549 54.7696 49.7202 51.4253 52.8405C45.6415 58.2476 36.6978 66.7441 33.3779 70.7949L33.7363 71.843C39.9914 66.6563 46.4522 63.87 51.1389 70.5963L68.0163 51.4426L61.7107 49.5398Z" fill="#B0ACA2"/>
<path d="M74.396 91.7502L73.8398 90.1094C75.0584 93.7288 73.2602 98.238 70.4028 102.799L70.9589 104.439C73.8064 99.8701 75.6145 95.3697 74.396 91.7502Z" fill="#FF8C64"/>
<path d="M87.452 84.3884C90.0949 80.6714 90.7757 76.8795 89.3664 73.7574L86.6665 67.7568L69.9078 87.0145C77.1939 90.7724 75.2846 97.5444 70.9689 104.429L72.0551 104.646C75.6137 100.822 82.8642 90.8253 87.452 84.3884Z" fill="#DDD9D4"/>
<path d="M43.8062 83.9127L42.7209 85.152C41.8532 86.1691 41.6473 87.7658 42.307 89.6962C43.6418 93.605 48.0021 97.4233 52.0529 98.2305C54.103 98.6386 55.6812 98.1978 56.5652 97.1491L57.6504 95.9097L43.8062 83.9127Z" fill="url(#paint0_linear)"/>
<path d="M45.6125 77.2409L44.1693 78.889C43.0183 80.2427 42.7433 82.3634 43.6169 84.9398C45.3861 90.1461 51.1999 95.2371 56.5941 96.3037C59.3192 96.8443 61.4257 96.2585 62.6043 94.8602L64.0475 93.2121L45.6125 77.2409Z" fill="#2E2E2E"/>
<path d="M93.5419 62.464C95.5266 60.1322 98.4505 56.3873 101.157 51.7523C101.085 51.8732 100.988 51.9835 100.911 52.0987C101 51.9705 101.102 51.8537 101.178 51.7142C101.26 51.556 101.347 51.4035 101.447 51.2502L82.4745 34.5445C82.4047 34.5981 82.0208 34.8924 81.7587 35.0871C76.7536 38.9699 71.4466 43.1844 45.154 77.1373C44.0898 78.5097 43.8415 80.5737 44.6487 83.0689C46.3772 88.4001 52.2704 93.6754 57.8245 94.8475C60.5147 95.4148 62.6268 94.9142 63.8995 93.6441C68.7898 88.7666 85.3769 72.0632 93.5419 62.464Z" fill="white"/>
<path d="M101.44 51.2444C102.937 48.5538 105.069 44.3907 106.333 39.3073C106.477 38.711 106.701 37.761 106.883 36.6244C107.668 31.8783 106.992 28.9588 106.769 28.179C106.301 26.5537 106.27 26.458 103.897 26.2485C101.764 26.066 93.9019 26.1287 82.4676 34.5388C80.7146 35.8468 80.1133 38.3009 81.1133 41.4006C82.8669 46.8341 88.8826 52.2051 94.5422 53.4008C97.866 54.1217 100.33 53.2188 101.44 51.2444Z" fill="#FF8C64"/>
<path d="M74.9095 100.34C76.9274 97.6006 78.5701 94.2203 79.7296 90.5208C80.2787 88.7655 80.7124 86.9439 81.0321 85.0744L82.8777 74.0194L81.1923 73.6876L79.3466 84.7425C79.0355 86.6022 78.5932 88.4336 78.0442 90.1889C76.8933 93.8786 75.2407 97.2503 73.2327 99.9988C68.0702 107.022 59.9889 117.835 56.5685 121.444L58.254 121.776C61.6658 118.176 69.7372 107.356 74.9095 100.34Z" fill="white"/>
<path d="M73.2238 100.007C76.199 95.9564 78.3713 90.5263 79.3377 84.751L81.1834 73.6961L64.4576 92.6776C65.6754 103.243 61.4849 112.522 56.2043 120.413L56.5597 121.452C59.9801 117.843 68.0613 107.031 73.2238 100.007Z" fill="#C2BEB3"/>
<path d="M62.4506 55.5382L51.736 58.8268C49.9336 59.3806 48.1766 60.0608 46.5091 60.8367C43.0036 62.4645 39.8795 64.5476 37.4115 66.9106C31.1306 72.9549 21.4796 82.3925 18.3536 86.2593L18.905 87.8862C22.031 84.0194 31.682 74.5819 37.9629 68.5375C40.4125 66.1757 43.5465 64.1012 47.052 62.4734C48.7195 61.6975 50.4679 61.0271 52.2788 60.4635L62.9935 57.175L62.4506 55.5382Z" fill="white"/>
<path d="M62.9921 57.1545L52.2775 60.443C46.6803 62.1632 41.5844 65.0331 37.9616 68.517C31.6807 74.5614 22.0297 83.9989 18.9036 87.8657L19.9807 88.0808C27.0971 81.8147 35.7504 76.4264 46.3841 76.2391L62.9921 57.1545Z" fill="#DDD9D4"/>
<path d="M77.8408 58.5342C74.3625 55.4676 69.5275 55.3013 67.0502 58.1541L65.5147 59.8601C67.9921 57.0074 72.827 57.1737 76.3053 60.2403C79.7718 63.2966 80.5983 68.0879 78.1209 70.9407L79.6564 69.2346C82.1338 66.3818 81.3072 61.5905 77.8408 58.5342Z" fill="#ECECEC"/>
<path d="M76.306 60.2397C72.8278 57.1732 67.9928 57.0068 65.5154 59.8596C63.0381 62.7124 63.8426 67.5051 67.3311 70.56C70.7976 73.6162 75.6546 73.7811 78.1217 70.9401C80.599 68.0873 79.7725 63.296 76.306 60.2397Z" fill="#D7D3CD"/>
<path d="M75.7197 60.9094C72.6878 58.2337 68.4741 58.0926 66.3156 60.5812C64.1673 63.0581 64.8531 67.2281 67.885 69.9038C70.9051 72.5693 75.1306 72.7207 77.2891 70.232C79.4697 67.7419 78.7501 63.5631 75.7197 60.9094Z" fill="#778DFE"/>
<path opacity="0.5" d="M68.6869 68.9881C65.8429 66.477 65.0821 62.6771 66.7736 60.153C66.6164 60.2851 66.4474 60.407 66.3034 60.5714C64.1552 63.0483 64.8409 67.2183 67.8728 69.894C70.893 72.5594 75.1185 72.7109 77.277 70.2222C77.4107 70.0695 77.4989 69.8977 77.6091 69.7244C75.3744 71.7313 71.5176 71.467 68.6869 68.9881Z" fill="#C6CFFF"/>
<path d="M119.262 107.505L119.234 103.89L116.22 101.864C115.877 101.632 115.949 101.113 116.342 100.98L119.793 99.8355L120.801 96.3594C120.916 95.9636 121.437 95.8708 121.684 96.2017L123.846 99.1088L127.482 98.9882C127.897 98.9758 128.146 99.4397 127.906 99.7737L125.79 102.715L127.029 106.114C127.17 106.5 126.805 106.881 126.408 106.757L122.938 105.668L120.068 107.892C119.743 108.149 119.266 107.92 119.262 107.505Z" fill="#F47458"/>
</g>
<defs>
<linearGradient id="paint0_linear" x1="41.5725" y1="86.4647" x2="55.3547" y2="98.5334" gradientUnits="userSpaceOnUse">
<stop stop-color="#1A1A1C"/>
<stop offset="1" stop-color="#202023"/>
</linearGradient>
<clipPath id="clip0">
<rect width="135" height="135" rx="67.5" fill="white"/>
</clipPath>
</defs>
</svg>
